PathFileType	4	(X/Y/Z)	C:\Users\Basilio\Documents\Thesis Gigler\squatting_fais\c3dfiles\047\SLS_pre_back1\markers_experimental.trc
DataRate	CameraRate	NumFrames	NumMarkers	Units	OrigDataRate	OrigDataStartFrame	OrigNumFrames
200.000000	200.000000	4	60	mm	200.000000	0	1260
Frame#	Time	FHD			LBHD			RBHD			C7			T10			CLAV			LSHO			LUUPA			LMUPA			LDUPA			LLEP			LMEP			LRAD			LUL			LRFIN			RSHO			RUPA1			RMUPA			RDUPA			RLEP			RMEP			RUL			RUFIN			LASI			RASI			USACR			LSACR			RSACR			LTHI1			LTHI2			LTHI3			LTHI4			LLFC			LMFC			LTIB1			LTIB2			LTIB3			LTIB4			LLMAL			LMMAL			LMT1			LMT2			LMT5			RTHI			RTHI2			RTHI3			RTHI4			RLFC			RMFC			RTIB1			RTIB2			RTIB3			RTIB4			RLMAL			RHEE			RMT1			RMT2			RMT5			RMMAL			*59			
		X1	Y1	Z1	X2	Y2	Z2	X3	Y3	Z3	X4	Y4	Z4	X5	Y5	Z5	X6	Y6	Z6	X7	Y7	Z7	X8	Y8	Z8	X9	Y9	Z9	X10	Y10	Z10	X11	Y11	Z11	X12	Y12	Z12	X13	Y13	Z13	X14	Y14	Z14	X15	Y15	Z15	X16	Y16	Z16	X17	Y17	Z17	X18	Y18	Z18	X19	Y19	Z19	X20	Y20	Z20	X21	Y21	Z21	X22	Y22	Z22	X23	Y23	Z23	X24	Y24	Z24	X25	Y25	Z25	X26	Y26	Z26	X27	Y27	Z27	X28	Y28	Z28	X29	Y29	Z29	X30	Y30	Z30	X31	Y31	Z31	X32	Y32	Z32	X33	Y33	Z33	X34	Y34	Z34	X35	Y35	Z35	X36	Y36	Z36	X37	Y37	Z37	X38	Y38	Z38	X39	Y39	Z39	X40	Y40	Z40	X41	Y41	Z41	X42	Y42	Z42	X43	Y43	Z43	X44	Y44	Z44	X45	Y45	Z45	X46	Y46	Z46	X47	Y47	Z47	X48	Y48	Z48	X49	Y49	Z49	X50	Y50	Z50	X51	Y51	Z51	X52	Y52	Z52	X53	Y53	Z53	X54	Y54	Z54	X55	Y55	Z55	X56	Y56	Z56	X57	Y57	Z57	X58	Y58	Z58	X59	Y59	Z59	X60	Y60	Z60	

1	0	-120.7312698364258	1729.051879882813	-1104.369995117188	-298.1623535156251	1701.101806640625	-1139.380981445313	-282.4863586425782	1704.731079101563	-991.9660644531252	-335.6893310546876	1526.553466796875	-1065.806884765625	-372.4773254394532	1215.747924804688	-1034.114379882813	-192.6638183593751	1452.200561523438	-1086.37353515625	-262.7533569335938	1468.128540039063	-1242.750610351563	-207.3902740478516	1303.350952148438	-1327.964477539063	-160.6716003417969	1324.055419921875	-1326.352905273438	-148.4544525146485	1265.851928710938	-1334.651489257813	-78.60181427001955	1243.810424804688	-1336.056884765625	-101.2843170166016	1199.715209960938	-1259.173217773438	93.02054595947267	1341.322998046875	-1170.640014648438	123.2931213378907	1271.820068359375	-1163.104858398438	183.7274475097657	1343.966552734375	-1154.76171875	-225.3328857421876	1489.252563476563	-925.2301025390627	-143.1478576660157	1340.946166992188	-820.5484008789065	-101.6052932739258	1357.575073242188	-840.4627075195315	-84.09230804443361	1303.44287109375	-821.5412597656252	-12.2659969329834	1282.167114257813	-837.1436767578127	-47.11130142211915	1217.103637695313	-887.8687744140627	162.8041381835938	1289.16357421875	-1032.68896484375	145.6521759033203	1367.805053710938	-1077.74658203125	-203.6254577636719	981.349548339844	-1111.242309570313	-207.2605590820313	1004.555541992188	-880.7234497070315	-383.4040527343751	1081.785522460938	-1012.257019042969	-385.5822753906251	1047.451782226563	-1037.561645507813	-387.974822998047	1054.286376953125	-979.0131835937502	-289.3296813964844	828.3439941406252	-1177.919921875	-253.7976684570313	751.6673583984376	-1173.12646484375	-205.9873962402344	756.0118408203126	-1159.614868164063	-282.6957702636719	697.8958740234376	-1165.591918945313	-304.6476745605469	528.0231323242189	-1122.364868164063	-272.6210327148438	522.7122192382814	-1003.995178222656	-281.5978698730469	343.9533996582032	-1023.355285644531	-293.9107666015626	295.6900634765626	-1096.031494140625	-277.6696777343751	294.0604858398438	-1050.354248046875	-295.8474731445313	218.9158020019532	-1017.156433105469	-351.8222961425782	125.7445220947266	-1058.8037109375	-329.0316162109376	139.8916168212891	-972.5895996093752	-210.2990264892579	64.67247772216798	-991.2147216796877	-209.0375671386719	61.44595336914064	-1036.399169921875	-259.1397705078126	50.48507690429689	-1080.054321289063	-287.6806335449219	836.8970947265627	-773.5164794921877	-243.2709197998047	789.3261718750002	-757.5496826171876	-211.9949035644532	792.1933593750002	-765.5377197265626	-260.1440734863282	707.8395385742189	-745.8449707031251	-244.0068969726563	575.5554199218751	-745.0974731445314	-219.1658935546876	534.5872192382814	-867.1842041015627	-333.3421630859376	491.6578979492189	-754.7142944335939	-431.8278198242189	539.2274169921876	-746.0890502929689	-418.9294433593751	493.9737854003907	-744.8549804687501	-458.6256103515626	462.8087158203126	-778.166198730469	-622.3235473632814	492.961639404297	-780.8481445312502	-636.8180541992189	529.9338989257814	-852.5322265625002	-668.1571044921876	324.9680786132813	-820.8122558593752	-676.7562866210939	331.7429809570313	-779.2307739257815	-712.4855346679689	392.803924560547	-745.8348388671876	nan	nan	nan	nan	nan	nan	
2	0.005	-120.7229690551758	1729.02294921875	-1104.334838867188	-298.2279052734376	1701.107299804688	-1139.341674804688	-282.4855651855469	1704.725219726563	-991.9063110351565	-335.7376098632813	1526.511352539063	-1065.791015625	-372.5437011718751	1215.736450195313	-1034.042358398438	-192.8626098632813	1452.191284179688	-1086.242919921875	-262.8921508789063	1468.088256835938	-1242.687744140625	-207.4581146240235	1303.326293945313	-1327.877197265625	-160.69873046875	1323.983276367188	-1326.275390625	-148.4933624267578	1265.802856445313	-1334.531860351563	-78.63707733154298	1243.765991210938	-1335.990844726563	-101.2548294067383	1199.67578125	-1259.010986328125	92.9453811645508	1341.35595703125	-1170.573608398438	123.1657791137696	1271.814453125	-1162.996948242188	183.6743316650391	1344.015380859375	-1154.674438476563	-225.5085754394532	1489.2236328125	-925.092712402344	-143.1854400634766	1340.910888671875	-820.5375976562502	-101.8276901245117	1357.624389648438	-840.4851684570315	-84.17799377441408	1303.468627929688	-821.414245605469	-12.43080711364746	1282.101318359375	-836.9617919921877	-47.15729522705079	1217.079833984375	-887.818298339844	162.7361907958985	1289.200805664063	-1032.576171875	145.4611358642578	1368.234252929688	-1078.461059570313	-203.6106719970704	981.3621826171877	-1111.151245117188	-207.311264038086	1004.505004882813	-880.6760253906252	-383.4877319335938	1081.775390625	-1012.177185058594	-385.741180419922	1047.442260742188	-1037.563842773438	-387.974822998047	1054.286254882813	-979.0131835937502	-289.2607116699219	828.360046386719	-1177.8525390625	-253.7669219970704	751.6450195312501	-1173.04248046875	-205.9227142333985	755.9915771484376	-1159.488525390625	-282.6689147949219	697.9201660156251	-1165.493408203125	-304.7470092773438	528.0109863281251	-1122.317016601563	-273.0768127441407	522.7133178710939	-1003.744140625	-281.6452941894532	343.9788818359376	-1023.29541015625	-293.7971191406251	295.7235107421876	-1095.929321289063	-277.6603698730469	294.0567321777344	-1050.28271484375	-295.9406127929688	218.8532867431641	-1016.985168457031	-351.7951660156251	125.7313995361328	-1058.78369140625	-329.0437011718751	139.8821868896485	-972.5172119140627	-210.344955444336	64.64132690429689	-991.1729125976565	-208.6830444335938	62.51649093627931	-1036.046264648438	-259.2411499023438	50.50473022460939	-1079.988891601563	-287.7524414062501	836.837341308594	-773.5052490234377	-243.2904663085938	789.3051757812502	-757.5932617187501	-212.0586853027344	792.149108886719	-765.5301513671876	-260.1929626464844	707.7817993164064	-745.8609619140626	-244.0957031250001	575.4856567382814	-745.0218505859376	-219.2344360351563	534.6073608398439	-867.1799316406252	-333.3806762695313	491.6536865234376	-754.6936645507814	-431.8296508789064	539.1669921875001	-746.0457763671876	-419.0078430175782	493.9346008300782	-744.7732543945314	-458.7232055664064	462.7420959472657	-778.0952148437502	-622.3615722656251	492.9234924316407	-780.8183593750002	-636.8635253906251	529.8792724609376	-852.5006103515627	-668.1358642578126	324.9627685546876	-820.7354125976565	-676.7548828125001	331.7148437500001	-779.0729980468752	-712.5725708007814	392.7303466796876	-745.8409423828126	nan	nan	nan	nan	nan	nan	
3	0.01	-120.8698120117188	1728.985961914063	-1104.27978515625	-298.3696899414063	1701.086303710938	-1139.267333984375	-282.6916503906251	1704.714111328125	-991.7930297851565	-335.7745056152344	1526.520751953125	-1065.698364257813	-372.7035217285157	1215.71728515625	-1034.009399414063	-192.9207763671876	1452.169799804688	-1086.163696289063	-262.9225158691407	1468.041137695313	-1242.633056640625	-207.6206817626954	1303.312622070313	-1327.768798828125	-160.8321075439453	1323.974487304688	-1326.171264648438	-148.5660705566407	1265.782104492188	-1334.485961914063	-78.68832397460939	1243.714111328125	-1335.894409179688	-101.2343368530274	1199.6728515625	-1258.927978515625	92.83856201171876	1341.377685546875	-1170.401733398438	123.1702880859375	1271.82763671875	-1162.944946289063	183.5810089111328	1344.08349609375	-1154.602172851563	-225.7404937744141	1489.182739257813	-924.9241333007815	-143.2299041748047	1340.86962890625	-820.486755371094	-101.8692855834961	1357.61083984375	-840.4185180664065	-84.30601501464845	1303.475463867188	-821.252868652344	-12.50210094451905	1282.089721679688	-836.9041137695315	-47.28575515747071	1217.065551757813	-887.6384277343752	162.6456604003907	1289.238037109375	-1032.473999023438	145.5921630859375	1367.87158203125	-1077.53173828125	-203.7575225830079	981.3496093750002	-1111.069091796875	-207.3645935058594	1004.491455078125	-880.6243896484377	-383.5131225585938	1081.724731445313	-1012.151489257813	-385.8176269531251	1047.441650390625	-1037.517578125	-388.1492919921876	1054.224731445313	-978.9819335937502	-289.2919921875001	828.3302001953127	-1177.8203125	-253.7777709960938	751.6387939453126	-1172.974609375	-205.9449615478516	755.9777221679689	-1159.352294921875	-282.6828002929688	697.8619995117189	-1165.430786132813	-304.7616577148438	527.9951782226564	-1122.24267578125	-273.4740600585938	522.7286987304689	-1003.46435546875	-281.6557617187501	343.9607849121094	-1023.215881347656	-293.7629699707032	295.6701660156251	-1095.826904296875	-277.3813171386719	293.5855102539063	-1050.476318359375	-296.0386962890626	218.8472595214844	-1016.8369140625	-351.7732543945313	125.7749481201172	-1058.775756835938	-329.0376281738282	139.8459167480469	-972.4680786132815	-210.329574584961	64.60234832763673	-991.1765136718752	-210.0202026367188	61.54190826416017	-1036.271240234375	-259.1143493652344	50.5589942932129	-1079.962158203125	-287.8097839355469	836.7966918945315	-773.421569824219	-243.3866729736329	789.2503051757815	-757.5905761718751	-212.1597442626954	792.0564575195315	-765.5231933593751	-260.3297729492188	707.7051391601564	-745.8250122070314	-244.1526031494141	575.4466552734376	-745.0878295898439	-219.2882080078126	534.5593872070314	-867.2317504882815	-333.4162597656251	491.6044311523439	-754.7170410156251	-431.9244995117189	539.0952758789064	-745.9967041015626	-419.0700683593751	493.8543395996095	-744.7626953125001	-458.7670898437501	462.6652832031251	-778.0393676757815	-622.4573974609376	492.8381958007814	-780.7234497070315	-636.8860473632814	529.8253784179689	-852.490905761719	-668.1613159179689	324.9345092773438	-820.758483886719	-676.8646240234376	331.6291809082032	-779.002380371094	-712.5759277343751	392.6806030273439	-745.8409423828126	nan	nan	nan	nan	nan	nan	
4	0.015	-120.9551773071289	1728.951538085938	-1104.164672851563	-298.3237609863282	1701.080200195313	-1139.19189453125	-282.8088378906251	1704.679565429688	-991.7119750976565	-335.8374023437501	1526.494995117188	-1065.6416015625	-372.7696533203126	1215.7060546875	-1033.937377929688	-192.9660339355469	1452.149536132813	-1086.092529296875	-262.9906921386719	1468.039184570313	-1242.571166992188	-207.6216125488282	1303.251708984375	-1327.680786132813	-160.8931427001953	1323.9072265625	-1326.096069335938	-148.6908721923828	1265.781372070313	-1334.429931640625	-78.71716308593751	1243.703979492188	-1335.80029296875	-101.2253341674805	1199.636352539063	-1258.848876953125	92.7439422607422	1341.35693359375	-1170.333984375	123.034164428711	1271.836669921875	-1162.791870117188	183.4737091064453	1344.048461914063	-1154.449096679688	-225.8251953125001	1489.182373046875	-924.8391113281252	-143.2799835205078	1340.83544921875	-820.435729980469	-101.8868255615235	1357.466064453125	-840.1817626953127	-84.38547515869142	1303.390625	-821.214294433594	-12.57678031921387	1282.075439453125	-836.7841796875002	-47.48134231567384	1217.008178710938	-887.4697265625002	162.5709686279297	1289.26611328125	-1032.390747070313	145.3882446289063	1367.891235351563	-1077.441040039063	-203.7727966308594	981.345397949219	-1110.978637695313	-207.4179992675782	1004.472106933594	-880.5753173828127	-383.6291503906251	1081.731811523438	-1012.129577636719	-385.9346923828126	1047.415283203125	-1037.516235351563	-388.1915588378907	1054.201416015625	-978.9096679687502	-289.3007812500001	828.3062744140627	-1177.7841796875	-253.8132324218751	751.6284179687501	-1172.920043945313	-205.9207305908204	755.9722290039064	-1159.233764648438	-282.6233520507813	697.8897705078126	-1165.384765625	-304.7741699218751	527.9776000976564	-1122.206787109375	-273.6940002441407	522.8039550781251	-1003.398559570313	-281.7403259277344	344.0087585449219	-1023.165344238281	-293.7851562500001	295.6660156250001	-1095.288452148438	-277.6371765136719	294.1025085449219	-1050.10693359375	-296.0526123046876	218.8373718261719	-1016.776062011719	-351.6956481933594	125.7198181152344	-1058.750854492188	-329.0495300292969	139.8055572509766	-972.429626464844	-210.3236236572266	64.56039428710939	-991.1627197265627	-208.9991607666016	61.4907913208008	-1036.315063476563	-259.1509704589844	50.57751464843751	-1079.923217773438	-287.8840332031251	836.7384033203127	-773.4453125000002	-243.4249267578126	789.195495605469	-757.6112060546876	-212.3043518066407	792.0577392578127	-765.5017700195314	-260.3914794921876	707.4080810546876	-745.6681518554689	-244.1664428710938	575.4219970703126	-745.0527343750001	-219.4007568359376	534.5072021484376	-867.1846313476565	-333.4001159667969	491.5389709472657	-754.7747802734376	-431.9533691406251	539.0540771484376	-745.9989013671876	-419.0291748046876	493.7877807617189	-744.8126831054689	-458.8119506835939	462.6113891601564	-778.0369262695315	-622.5483398437501	492.692108154297	-780.6914062500002	-636.9436035156251	529.7459716796876	-852.4239501953127	-668.1870117187501	324.8552246093751	-820.739929199219	-676.8000488281251	331.5209045410157	-779.058288574219	-712.5994873046876	392.5820312500001	-745.8193359375001	nan	nan	nan	nan	nan	nan	
